<?xml version="1.0" standalone="no"?>
<!DOCTYPE svg PUBLIC "-//W3C//DTD SVG 20010904//EN"
 "http://www.w3.org/TR/2001/REC-SVG-20010904/DTD/svg10.dtd">
<svg version="1.0" xmlns="http://www.w3.org/2000/svg"
 width="192.000000pt" height="192.000000pt" viewBox="0 0 192.000000 192.000000"
 preserveAspectRatio="xMidYMid meet">
<metadata>
Created by potrace 1.14, written by Peter Selinger 2001-2017
</metadata>
<g transform="translate(0.000000,192.000000) scale(0.100000,-0.100000)"
fill="#000000" stroke="none">
<path d="M869 1835 c-2 -1 -22 -5 -44 -8 -138 -20 -300 -100 -413 -203 -47
-43 -152 -166 -152 -178 0 -2 -15 -30 -33 -63 -31 -54 -75 -179 -69 -195 1 -5
-1 -8 -6 -8 -9 0 -15 -80 -14 -180 1 -111 2 -130 13 -156 11 -31 -9 -39 -110
-43 -23 -1 -24 -2 -17 -75 4 -41 16 -102 27 -135 19 -60 19 -61 -1 -98 -11
-21 -20 -57 -20 -80 0 -87 87 -216 154 -228 63 -12 72 -11 120 10 l49 22 42
-24 c153 -85 354 -106 575 -59 13 3 39 13 58 22 27 12 36 13 48 3 12 -10 15
-10 12 1 -2 7 3 15 10 17 8 3 10 -2 6 -14 -3 -11 0 -8 9 6 12 20 15 21 21 6 3
-9 3 -22 -1 -27 -4 -7 -1 -8 6 -4 7 5 10 14 7 21 -6 17 21 28 28 12 2 -7 5 -5
5 5 1 19 25 17 71 -5 16 -8 32 -12 35 -8 4 3 10 6 14 6 4 0 25 8 48 19 39 17
93 79 93 106 0 5 5 10 11 10 5 0 8 -4 5 -8 -3 -5 1 -9 9 -9 12 0 12 3 3 15
-10 11 -9 16 4 23 9 5 36 27 59 49 23 21 47 36 52 33 6 -3 7 -1 3 5 -3 6 2 15
11 21 10 6 15 11 11 11 -5 0 2 10 14 22 13 13 27 22 31 20 5 -1 6 2 2 7 -6 10
52 113 67 119 5 2 6 8 2 13 -3 5 2 12 10 15 9 3 14 10 11 14 -3 5 0 21 6 37
15 34 14 31 36 118 10 39 18 85 18 103 0 18 3 32 7 32 4 0 5 6 3 13 -2 6 -6
48 -9 92 -2 44 -6 87 -10 95 -3 8 -7 29 -10 45 -14 91 -86 237 -164 333 -55
68 -80 91 -151 146 -30 22 -65 51 -76 63 -12 11 -46 28 -76 37 -188 55 -206
59 -325 62 -67 1 -123 1 -125 -1z"/>
<path d="M1570 386 c0 -2 7 -7 16 -10 8 -3 12 -2 9 4 -6 10 -25 14 -25 6z"/>
<path d="M1536 362 c-3 -5 1 -9 9 -9 8 0 12 4 9 9 -3 4 -7 8 -9 8 -2 0 -6 -4
-9 -8z"/>
<path d="M1195 180 c-3 -5 -1 -10 4 -10 6 0 11 5 11 10 0 6 -2 10 -4 10 -3 0
-8 -4 -11 -10z"/>
<path d="M1050 139 c0 -5 5 -7 10 -4 6 3 10 8 10 11 0 2 -4 4 -10 4 -5 0 -10
-5 -10 -11z"/>
</g>
</svg>
